# xmcd
#
# Track frame offsets:
#	150
#	13310
#	24715
#	34118
#	44325
#	57421
#	70579
#	81712
#	94299
#	111301
#	125597
#	138548
#	148062
#	160919
#
# Disc length: 2308 seconds
#
# Revision: 0
# Processed by: cddbd v1.5.2PL0 Copyright (c) Steve Scherf et al.
# Submitted via: EZCDAudioConverter 1.3.4.1
#
DISCID=d409020e
DTITLE=Mestre Cupijó e Seu Ritmo - Siriá
DYEAR=1900
DGENRE=
TTITLE0=Mingau De Açai
TTITLE1=Mambo Do Martelo
TTITLE2=Caboclinha Do Igapó
TTITLE3=Tubarão Branco
TTITLE4=Morena Do Rio Mutuacá
TTITLE5=Papa Chibê
TTITLE6=Farol Do Marajó
TTITLE7=Cadê O Anel?
TTITLE8=Ventinho Do Norte
TTITLE9=Siriá Quente
TTITLE10=Eu Quero O Meu Anel
TTITLE11=Perereca
TTITLE12=Prá Dançá Meu Siriá
TTITLE13=Passarinho Siriri
EXTD=
EXTT0=
EXTT1=
EXTT2=
EXTT3=
EXTT4=
EXTT5=
EXTT6=
EXTT7=
EXTT8=
EXTT9=
EXTT10=
EXTT11=
EXTT12=
EXTT13=
PLAYORDER=
